<svg width="32" height="32" viewBox="0 0 32 32" fill="none" xmlns="http://www.w3.org/2000/svg">
<g id="Tent">
<path id="Vector" d="M31.9137 23.5938L23.9137 5.59375C23.8352 5.41702 23.707 5.26686 23.5448 5.16148C23.3827 5.05609 23.1934 5 23 5H8.99999C8.80825 5.00031 8.62065 5.05574 8.45953 5.15969C8.29841 5.26363 8.17057 5.41169 8.09124 5.58625C8.09088 5.58874 8.09088 5.59126 8.09124 5.59375V5.60875L0.0862383 23.5938C0.0185488 23.746 -0.0100246 23.9128 0.0031141 24.0789C0.0162528 24.245 0.0706872 24.4051 0.161471 24.5449C0.252256 24.6846 0.376512 24.7994 0.522951 24.8789C0.669389 24.9584 0.833368 25 0.999988 25H31C31.1666 25 31.3306 24.9584 31.477 24.8789C31.6235 24.7994 31.7477 24.6846 31.8385 24.5449C31.9293 24.4051 31.9837 24.245 31.9969 24.0789C32.01 23.9128 31.9814 23.746 31.9137 23.5938ZM7.99999 23H2.53874L7.99999 10.7125V23ZM9.99999 23V10.7125L15.4612 23H9.99999ZM17.65 23L10.5387 7H22.35L29.4612 23H17.65Z" fill="white"/>
</g>
</svg>
