<svg width="16" height="16" viewBox="0 0 16 16" fill="none" xmlns="http://www.w3.org/2000/svg">
<g id="ArrowUpRight">
<path id="Vector" d="M12.5002 4V10.5C12.5002 10.6326 12.4475 10.7598 12.3537 10.8536C12.2599 10.9473 12.1328 11 12.0002 11C11.8675 11 11.7404 10.9473 11.6466 10.8536C11.5528 10.7598 11.5002 10.6326 11.5002 10.5V5.20688L4.35391 12.3538C4.26009 12.4476 4.13284 12.5003 4.00016 12.5003C3.86747 12.5003 3.74023 12.4476 3.64641 12.3538C3.55259 12.2599 3.49988 12.1327 3.49988 12C3.49988 11.8673 3.55259 11.7401 3.64641 11.6463L10.7933 4.5H5.50016C5.36755 4.5 5.24037 4.44732 5.1466 4.35355C5.05283 4.25979 5.00016 4.13261 5.00016 4C5.00016 3.86739 5.05283 3.74021 5.1466 3.64645C5.24037 3.55268 5.36755 3.5 5.50016 3.5H12.0002C12.1328 3.5 12.2599 3.55268 12.3537 3.64645C12.4475 3.74021 12.5002 3.86739 12.5002 4Z" fill="white"/>
</g>
</svg>
