<svg width="24" height="24" viewBox="0 0 24 24" fill="none" xmlns="http://www.w3.org/2000/svg">
<g id="Chats icon">
<path id="Vector" d="M21.7559 17.5087C22.2741 16.4338 22.5284 15.2508 22.4976 14.058C22.4668 12.8651 22.1518 11.6968 21.5788 10.6501C21.0058 9.60341 20.1914 8.70854 19.2031 8.03984C18.2148 7.37113 17.0812 6.94789 15.8965 6.80527C15.5023 5.88873 14.9292 5.06007 14.2107 4.36779C13.4923 3.67551 12.6429 3.13353 11.7124 2.7736C10.7819 2.41367 9.78887 2.24302 8.79157 2.27164C7.79427 2.30026 6.81271 2.52758 5.90435 2.94028C4.996 3.35298 4.17912 3.94277 3.50155 4.67511C2.82398 5.40745 2.29934 6.26762 1.95834 7.20525C1.61735 8.14288 1.46687 9.13912 1.5157 10.1356C1.56453 11.1321 1.8117 12.1089 2.24273 13.0087L1.56117 15.3253C1.48496 15.5839 1.47987 15.8582 1.54642 16.1195C1.61297 16.3808 1.7487 16.6193 1.93934 16.8099C2.12998 17.0005 2.36848 17.1363 2.62974 17.2028C2.891 17.2694 3.16537 17.2643 3.42398 17.1881L5.74054 16.5065C6.48438 16.8639 7.28187 17.0967 8.10117 17.1956C8.49921 18.1282 9.08224 18.9704 9.81501 19.6713C10.5478 20.3723 11.4151 20.9173 12.3645 21.2735C13.3139 21.6297 14.3256 21.7897 15.3386 21.7438C16.3516 21.698 17.3447 21.4471 18.258 21.0065L20.5746 21.6881C20.8331 21.7642 21.1074 21.7693 21.3685 21.7027C21.6297 21.6362 21.8681 21.5006 22.0587 21.3101C22.2493 21.1196 22.385 20.8812 22.4517 20.6201C22.5183 20.359 22.5134 20.0848 22.4374 19.8262L21.7559 17.5087ZM5.81179 14.9531C5.74012 14.9532 5.66882 14.9633 5.59992 14.9831L2.99929 15.75L3.76523 13.1475C3.8197 12.9594 3.79851 12.7576 3.70617 12.585C3.02771 11.3161 2.8278 9.84573 3.14288 8.44182C3.45797 7.03792 4.26706 5.79398 5.42268 4.93678C6.57829 4.07958 8.00347 3.66619 9.4384 3.77198C10.8733 3.87778 12.2225 4.4957 13.2399 5.5131C14.2573 6.53051 14.8752 7.87965 14.981 9.31459C15.0868 10.7495 14.6734 12.1747 13.8162 13.3303C12.959 14.4859 11.7151 15.295 10.3112 15.6101C8.90726 15.9252 7.43687 15.7253 6.16804 15.0468C6.05893 14.9864 5.93649 14.9542 5.81179 14.9531ZM20.2296 17.6465L20.9993 20.25L18.3968 19.484C18.2088 19.4295 18.0069 19.4507 17.8343 19.5431C16.4532 20.2805 14.8387 20.4494 13.3349 20.0137C11.8311 19.578 10.5569 18.5721 9.78398 17.2106C10.8109 17.1034 11.8046 16.7852 12.7027 16.2758C13.6008 15.7665 14.384 15.077 15.0031 14.2507C15.6222 13.4244 16.0638 12.4791 16.3003 11.4741C16.5368 10.469 16.5631 9.42593 16.3774 8.41027C17.2722 8.62117 18.1065 9.03485 18.816 9.61936C19.5255 10.2039 20.0912 10.9436 20.4694 11.7814C20.8476 12.6193 21.0283 13.5328 20.9975 14.4516C20.9666 15.3703 20.7251 16.2697 20.2915 17.0803C20.1981 17.2539 20.1769 17.4573 20.2324 17.6465H20.2296Z" fill="white"/>
</g>
</svg>
